<svg width="66" height="66" viewBox="0 0 66 66" fill="none" xmlns="http://www.w3.org/2000/svg">
<g clip-path="url(#clip0_122_31)">
<path d="M61.2916 22.804C61.0247 20.7977 60.9871 17.3421 62.8506 16.1818C62.8839 16.1605 62.9087 16.1298 62.9379 16.1034C64.4614 15.6161 65.5158 14.9322 64.6881 14.012L42.2137 7.24023L5.82248 12.2997C5.82248 12.2997 1.65523 12.8954 2.0275 19.3697C2.22959 22.8935 3.33478 24.624 4.3013 25.4757L1.31507 26.3757C0.48623 27.2959 1.5404 27.98 3.06415 28.4665C3.0931 28.4937 3.11752 28.5242 3.1514 28.5455C5.01373 29.7068 4.97789 33.162 4.71001 35.1687C-1.9804 37.0685 0.421231 37.6875 0.421231 37.6875L1.88884 38.0427C0.85653 38.9755 -0.168688 40.7445 0.0233556 44.0994C0.395822 50.5726 3.81873 51.0193 3.81873 51.0193L27.6329 58.7598L63.5776 50.0534C63.5776 50.0534 65.98 49.4333 59.2878 47.5334C59.0188 45.5298 58.9814 42.075 60.848 40.9107C60.8823 40.89 60.9073 40.8587 60.9351 40.8327C62.4588 40.3454 63.5122 39.6621 62.6844 38.7419L61.122 38.2702C62.164 37.6418 63.7291 35.9997 63.9743 31.7342C64.1435 28.8001 63.3781 27.0818 62.4921 26.0702L65.5802 25.3229C65.5804 25.3241 67.9828 24.704 61.2916 22.804ZM31.226 22.7211L37.2706 21.4788L57.6977 17.2811L60.7411 16.6551C59.7686 18.4349 59.8094 20.8706 59.9703 22.4361C60.0056 22.7903 60.0462 23.1137 60.0856 23.3595L56.7544 24.1877L30.9719 30.6016L31.226 22.7211ZM5.26113 29.0207L8.30408 29.6467L27.9215 33.6794L29.6353 34.0304L34.7748 35.0868L35.0283 42.9675L8.52941 36.3747L5.91703 35.7255C5.95544 35.4793 5.99601 35.1563 6.03285 34.8012C6.19278 33.2368 6.23434 30.8006 5.26113 29.0207ZM4.07892 19.0581C4.04209 17.336 4.34897 16.0906 4.96922 15.4575C5.36394 15.0534 5.82977 14.9693 6.14925 14.9693C6.31806 14.9693 6.43958 14.9927 6.44786 14.9927L22.1279 20.1046L29.9509 22.6551L29.6942 30.5908L7.74765 24.4379L6.58948 24.1135C6.54213 24.101 6.49361 24.0936 6.44471 24.0912C6.3543 24.0847 4.1845 23.885 4.07892 19.0581ZM27.6897 55.3217L4.58553 48.8442C4.53835 48.8315 4.48995 48.8238 4.44115 48.8213C4.34916 48.8152 2.17838 48.6157 2.0734 43.79C2.03597 42.0657 2.34443 40.8215 2.9635 40.1878C3.3592 39.7837 3.82523 39.6996 4.14412 39.6996C4.31332 39.6996 4.43445 39.7222 4.44332 39.7222L27.9447 47.3858L27.6897 55.3217ZM57.9646 47.1658C58.001 47.5212 58.0416 47.844 58.081 48.0902L28.9668 55.3329L29.2213 47.4522L35.4457 46.1725L36.3649 46.3949L39.8103 45.2751L55.692 42.0116L58.7365 41.3852C57.7631 43.1648 57.8035 45.6015 57.9646 47.1658ZM59.5683 36.4557C59.5155 36.4563 59.4631 36.4644 59.4125 36.4797L57.2167 37.0945L36.309 42.957L36.0533 35.0214L42.9129 32.784L59.5226 27.3672C59.5248 27.3662 60.3964 27.1726 61.0361 27.8232C61.6554 28.4562 61.9627 29.7017 61.9264 31.4238C61.8181 36.2491 59.6473 36.4496 59.5683 36.4557Z" fill="#F05829"/>
</g>
<rect x="0.5" y="0.5" width="65" height="65" stroke="#4D4B4B" stroke-opacity="0.04"/>
<defs>
<clipPath id="clip0_122_31">
<rect width="66" height="66" fill="white"/>
</clipPath>
</defs>
</svg>
