<svg width="20" height="20" viewBox="0 0 20 20" fill="none" xmlns="http://www.w3.org/2000/svg">
<path fill-rule="evenodd" clip-rule="evenodd" d="M5.83325 6.66669V5.83335C5.83325 4.72828 6.27224 3.66848 7.05364 2.88708C7.83504 2.10567 8.89485 1.66669 9.99992 1.66669C11.105 1.66669 12.1648 2.10567 12.9462 2.88708C13.7276 3.66848 14.1666 4.72828 14.1666 5.83335V6.66669C14.8296 6.66669 15.4655 6.93008 15.9344 7.39892C16.4032 7.86776 16.6666 8.50365 16.6666 9.16669V15.8334C16.6666 16.4964 16.4032 17.1323 15.9344 17.6011C15.4655 18.07 14.8296 18.3334 14.1666 18.3334H5.83325C5.17021 18.3334 4.53433 18.07 4.06549 17.6011C3.59664 17.1323 3.33325 16.4964 3.33325 15.8334V9.16669C3.33325 8.50365 3.59664 7.86776 4.06549 7.39892C4.53433 6.93008 5.17021 6.66669 5.83325 6.66669ZM12.4999 6.66669V5.83335C12.4999 5.17031 12.2365 4.53443 11.7677 4.06559C11.2988 3.59675 10.663 3.33335 9.99992 3.33335C9.33688 3.33335 8.70099 3.59675 8.23215 4.06559C7.76331 4.53443 7.49992 5.17031 7.49992 5.83335V6.66669H12.4999ZM10.8333 13.11C11.151 12.9266 11.3993 12.6434 11.5397 12.3045C11.68 11.9655 11.7047 11.5897 11.6097 11.2353C11.5148 10.8809 11.3055 10.5678 11.0145 10.3445C10.7234 10.1211 10.3668 10 9.99992 10C9.63304 10 9.27642 10.1211 8.98536 10.3445C8.6943 10.5678 8.48507 10.8809 8.39012 11.2353C8.29516 11.5897 8.31979 11.9655 8.46018 12.3045C8.60056 12.6434 8.84887 12.9266 9.16658 13.11V14.1667C9.16658 14.3877 9.25438 14.5997 9.41066 14.7559C9.56694 14.9122 9.7789 15 9.99992 15C10.2209 15 10.4329 14.9122 10.5892 14.7559C10.7455 14.5997 10.8333 14.3877 10.8333 14.1667V13.11Z" fill="#22272E"/>
</svg>
